<?xml version="1.0" encoding="UTF-8" standalone="yes"?><svg xmlns="http://www.w3.org/2000/svg" xmlns:xlink="http://www.w3.org/1999/xlink" height="865px" style="width:633px;height:865px;" version="1.1" viewBox="0 0 633 865" width="633px"><defs><filter height="300%" id="f1" width="300%" x="-1" y="-1"><feGaussianBlur result="blurOut" stdDeviation="2.0"/><feColorMatrix in="blurOut" result="blurOut2" type="matrix" values="0 0 0 0 0 0 0 0 0 0 0 0 0 0 0 0 0 0 .4 0"/><feOffset dx="4.0" dy="4.0" in="blurOut2" result="blurOut3"/><feBlend in="SourceGraphic" in2="blurOut3" mode="normal"/></filter></defs><g><text fill="#000000" font-family="sans-serif" font-size="18" lengthAdjust="spacingAndGlyphs" textLength="139" x="260.5" y="18.6855">HTTP Watchman</text><polygon fill="#FFFFFF" filter="url(#f1)" points="22,46.6406,98,46.6406,105,70.25,515,70.25,515,670.6406,22,670.6406,22,46.6406" style="stroke: #000000; stroke-width: 2.0;"/><line style="stroke: #000000; stroke-width: 2.0;" x1="22" x2="105" y1="70.25" y2="70.25"/><text fill="#000000" font-family="sans-serif" font-size="14" font-weight="bold" lengthAdjust="spacingAndGlyphs" textLength="70" x="25" y="64.1738">watchman</text><polygon fill="#FFFFFF" filter="url(#f1)" points="227,703.6406,261,703.6406,268,727.25,626,727.25,626,858.6406,227,858.6406,227,703.6406" style="stroke: #000000; stroke-width: 2.0;"/><line style="stroke: #000000; stroke-width: 2.0;" x1="227" x2="268" y1="727.25" y2="727.25"/><text fill="#000000" font-family="sans-serif" font-size="14" font-weight="bold" lengthAdjust="spacingAndGlyphs" textLength="28" x="230" y="721.1738">mail</text><rect fill="#FEFECE" filter="url(#f1)" height="89.5078" style="stroke: #A80036; stroke-width: 1.5;" width="199" x="84.5" y="240.1406"/><ellipse cx="150.25" cy="256.1406" fill="#ADD1B2" rx="11" ry="11" style="stroke: #A80036; stroke-width: 1.0;"/><path d="M152.9531,261.5781 Q152.0313,262.5 149.7656,262.5 Q148.5,262.5 147.5781,261.5781 Q145.9219,259.9219 145.9219,256.3906 Q145.9219,252.2813 147.7031,250.4844 Q148.6406,249.5625 149.8281,249.5625 Q152.0938,249.5625 152.8281,250.2813 Q154.2188,251.6875 154.1563,254.0781 L151.6875,254.0781 Q151.625,251.9531 150.8906,251.2188 Q150.5,250.8125 149.8281,250.8125 Q149.8281,250.8125 149.7656,251.2813 Q148.4375,252.6094 148.4375,256.2656 Q148.4375,259.4531 149.5781,260.5781 Q150.1094,261.1094 150.1094,261.1094 Q150.3594,261.1094 150.8906,260.5781 Q151.5625,259.9219 151.625,257.5313 L154.2188,257.5313 Q154.0156,260.5156 152.9531,261.5781 Z "/><text fill="#000000" font-family="sans-serif" font-size="12" lengthAdjust="spacingAndGlyphs" textLength="59" x="170.75" y="261.0508">Watchman</text><line style="stroke: #A80036; stroke-width: 1.5;" x1="85.5" x2="282.5" y1="272.1406" y2="272.1406"/><rect fill="none" height="6" style="stroke: #C82930; stroke-width: 1.0;" width="6" x="92.5" y="281.5586"/><text fill="#000000" font-family="sans-serif" font-size="11" lengthAdjust="spacingAndGlyphs" textLength="125" x="104.5" y="287.5596">addresses: Vector[String]</text><line style="stroke: #A80036; stroke-width: 1.5;" x1="85.5" x2="282.5" y1="293.9766" y2="293.9766"/><ellipse cx="95.5" cy="306.3945" fill="#84BE84" rx="3" ry="3" style="stroke: #038048; stroke-width: 1.0;"/><text fill="#000000" font-family="sans-serif" font-size="11" lengthAdjust="spacingAndGlyphs" textLength="135" x="104.5" y="309.3955">register(AddressBook): Unit</text><ellipse cx="95.5" cy="320.2305" fill="#84BE84" rx="3" ry="3" style="stroke: #038048; stroke-width: 1.0;"/><text fill="#000000" font-family="sans-serif" font-size="11" lengthAdjust="spacingAndGlyphs" textLength="173" x="104.5" y="323.2314">check(): Vector[(Address, Source)]</text><rect fill="#FEFECE" filter="url(#f1)" height="131.0156" style="stroke: #A80036; stroke-width: 1.5;" width="144" x="353" y="219.6406"/><ellipse cx="385.1" cy="235.6406" fill="#ADD1B2" rx="11" ry="11" style="stroke: #A80036; stroke-width: 1.0;"/><path d="M387.8031,241.0781 Q386.8813,242 384.6156,242 Q383.35,242 382.4281,241.0781 Q380.7719,239.4219 380.7719,235.8906 Q380.7719,231.7813 382.5531,229.9844 Q383.4906,229.0625 384.6781,229.0625 Q386.9438,229.0625 387.6781,229.7813 Q389.0688,231.1875 389.0063,233.5781 L386.5375,233.5781 Q386.475,231.4531 385.7406,230.7188 Q385.35,230.3125 384.6781,230.3125 Q384.6781,230.3125 384.6156,230.7813 Q383.2875,232.1094 383.2875,235.7656 Q383.2875,238.9531 384.4281,240.0781 Q384.9594,240.6094 384.9594,240.6094 Q385.2094,240.6094 385.7406,240.0781 Q386.4125,239.4219 386.475,237.0313 L389.0688,237.0313 Q388.8656,240.0156 387.8031,241.0781 Z "/><text fill="#000000" font-family="sans-serif" font-size="12" lengthAdjust="spacingAndGlyphs" textLength="74" x="402.9" y="240.5508">AddressBook</text><line style="stroke: #A80036; stroke-width: 1.5;" x1="354" x2="496" y1="251.6406" y2="251.6406"/><rect fill="none" height="6" style="stroke: #C82930; stroke-width: 1.0;" width="6" x="361" y="261.0586"/><text fill="#000000" font-family="sans-serif" font-size="11" lengthAdjust="spacingAndGlyphs" textLength="118" x="373" y="267.0596">nonSecures: Seq[String]</text><rect fill="none" height="6" style="stroke: #C82930; stroke-width: 1.0;" width="6" x="361" y="274.8945"/><text fill="#000000" font-family="sans-serif" font-size="11" lengthAdjust="spacingAndGlyphs" textLength="108" x="373" y="280.8955">addresses: Set[String]</text><line style="stroke: #A80036; stroke-width: 1.5;" x1="354" x2="496" y1="287.3125" y2="287.3125"/><ellipse cx="364" cy="299.7305" fill="#84BE84" rx="3" ry="3" style="stroke: #038048; stroke-width: 1.0;"/><text fill="#000000" font-family="sans-serif" font-size="11" lengthAdjust="spacingAndGlyphs" textLength="107" x="373" y="302.7314">apply(): Vector[String]</text><ellipse cx="364" cy="313.5664" fill="#84BE84" rx="3" ry="3" style="stroke: #038048; stroke-width: 1.0;"/><text fill="#000000" font-family="sans-serif" font-size="11" lengthAdjust="spacingAndGlyphs" textLength="90" x="373" y="316.5674">validate(): Boolean</text><ellipse cx="364" cy="327.4023" fill="#84BE84" rx="3" ry="3" style="stroke: #038048; stroke-width: 1.0;"/><text fill="#000000" font-family="sans-serif" font-size="11" lengthAdjust="spacingAndGlyphs" textLength="78" x="373" y="330.4033">add(String): Unit</text><ellipse cx="364" cy="341.2383" fill="#84BE84" rx="3" ry="3" style="stroke: #038048; stroke-width: 1.0;"/><text fill="#000000" font-family="sans-serif" font-size="11" lengthAdjust="spacingAndGlyphs" textLength="96" x="373" y="344.2393">remove(String): Unit</text><rect fill="#FEFECE" filter="url(#f1)" height="83.8594" style="stroke: #A80036; stroke-width: 1.5;" width="286" x="38" y="438.1406"/><ellipse cx="152.25" cy="458.2344" fill="#FFFF00" rx="11" ry="11" style="stroke: #A80036; stroke-width: 1.0;"/><path d="M156.1563,458.0938 Q156.1563,462.2813 154.6875,463.7344 Q153.8281,464.5938 151.5,464.5938 Q150.1094,464.5938 149.25,463.7344 Q147.7813,462.2813 147.7813,458.0938 Q147.7813,453.9688 149.25,452.5156 Q150.1094,451.6563 151.5,451.6563 Q153.8281,451.6563 154.6875,452.5156 Q156.1563,453.9688 156.1563,458.0938 Z M150.3125,458.0938 Q150.3125,461.875 151.1719,462.7344 Q151.7656,463.3438 151.7656,463.3438 Q152.1719,463.3438 152.7656,462.7344 Q153.625,461.875 153.625,458.0938 Q153.625,454.375 152.7656,453.5156 Q152.1719,452.9063 151.5,452.9063 Q151.5,452.9063 151.1719,453.5156 Q150.3125,454.375 150.3125,458.0938 Z "/><text fill="#000000" font-family="sans-serif" font-size="12" font-style="italic" lengthAdjust="spacingAndGlyphs" textLength="48" x="173.25" y="455.5977">«object»</text><text fill="#000000" font-family="sans-serif" font-size="12" lengthAdjust="spacingAndGlyphs" textLength="49" x="172.75" y="470.6914">Retriever</text><line style="stroke: #A80036; stroke-width: 1.5;" x1="39" x2="323" y1="478.3281" y2="478.3281"/><line style="stroke: #A80036; stroke-width: 1.5;" x1="39" x2="323" y1="486.3281" y2="486.3281"/><ellipse cx="49" cy="498.7461" fill="#84BE84" rx="3" ry="3" style="stroke: #038048; stroke-width: 1.0;"/><text fill="#000000" font-family="sans-serif" font-size="11" lengthAdjust="spacingAndGlyphs" textLength="235" x="58" y="501.7471">apply(String): Vector[Future[(Address, Source)]]</text><ellipse cx="49" cy="512.582" fill="#84BE84" rx="3" ry="3" style="stroke: #038048; stroke-width: 1.0;"/><text fill="#000000" font-family="sans-serif" font-size="11" lengthAdjust="spacingAndGlyphs" textLength="260" x="58" y="515.583">retrieve(Address): Vector[Future[(Address, Source)]]</text><rect fill="#FEFECE" filter="url(#f1)" height="61.8359" style="stroke: #A80036; stroke-width: 1.5;" width="78" x="85" y="592.6406"/><ellipse cx="100" cy="608.6406" fill="#ADD1B2" rx="11" ry="11" style="stroke: #A80036; stroke-width: 1.0;"/><path d="M102.7031,614.0781 Q101.7813,615 99.5156,615 Q98.25,615 97.3281,614.0781 Q95.6719,612.4219 95.6719,608.8906 Q95.6719,604.7813 97.4531,602.9844 Q98.3906,602.0625 99.5781,602.0625 Q101.8438,602.0625 102.5781,602.7813 Q103.9688,604.1875 103.9063,606.5781 L101.4375,606.5781 Q101.375,604.4531 100.6406,603.7188 Q100.25,603.3125 99.5781,603.3125 Q99.5781,603.3125 99.5156,603.7813 Q98.1875,605.1094 98.1875,608.7656 Q98.1875,611.9531 99.3281,613.0781 Q99.8594,613.6094 99.8594,613.6094 Q100.1094,613.6094 100.6406,613.0781 Q101.3125,612.4219 101.375,610.0313 L103.9688,610.0313 Q103.7656,613.0156 102.7031,614.0781 Z "/><text fill="#000000" font-family="sans-serif" font-size="12" lengthAdjust="spacingAndGlyphs" textLength="46" x="114" y="613.5508">Address</text><line style="stroke: #A80036; stroke-width: 1.5;" x1="86" x2="162" y1="624.6406" y2="624.6406"/><ellipse cx="96" cy="637.0586" fill="none" rx="3" ry="3" style="stroke: #038048; stroke-width: 1.0;"/><text fill="#000000" font-family="sans-serif" font-size="11" lengthAdjust="spacingAndGlyphs" textLength="46" x="105" y="640.0596">url: String</text><line style="stroke: #A80036; stroke-width: 1.5;" x1="86" x2="162" y1="646.4766" y2="646.4766"/><rect fill="#FEFECE" filter="url(#f1)" height="61.8359" style="stroke: #A80036; stroke-width: 1.5;" width="79" x="198.5" y="592.6406"/><ellipse cx="217.1" cy="608.6406" fill="#ADD1B2" rx="11" ry="11" style="stroke: #A80036; stroke-width: 1.0;"/><path d="M219.8031,614.0781 Q218.8813,615 216.6156,615 Q215.35,615 214.4281,614.0781 Q212.7719,612.4219 212.7719,608.8906 Q212.7719,604.7813 214.5531,602.9844 Q215.4906,602.0625 216.6781,602.0625 Q218.9438,602.0625 219.6781,602.7813 Q221.0688,604.1875 221.0063,606.5781 L218.5375,606.5781 Q218.475,604.4531 217.7406,603.7188 Q217.35,603.3125 216.6781,603.3125 Q216.6781,603.3125 216.6156,603.7813 Q215.2875,605.1094 215.2875,608.7656 Q215.2875,611.9531 216.4281,613.0781 Q216.9594,613.6094 216.9594,613.6094 Q217.2094,613.6094 217.7406,613.0781 Q218.4125,612.4219 218.475,610.0313 L221.0688,610.0313 Q220.8656,613.0156 219.8031,614.0781 Z "/><text fill="#000000" font-family="sans-serif" font-size="12" lengthAdjust="spacingAndGlyphs" textLength="39" x="231.9" y="613.5508">Source</text><line style="stroke: #A80036; stroke-width: 1.5;" x1="199.5" x2="276.5" y1="624.6406" y2="624.6406"/><ellipse cx="209.5" cy="637.0586" fill="none" rx="3" ry="3" style="stroke: #038048; stroke-width: 1.0;"/><text fill="#000000" font-family="sans-serif" font-size="11" lengthAdjust="spacingAndGlyphs" textLength="53" x="218.5" y="640.0596">html: String</text><line style="stroke: #A80036; stroke-width: 1.5;" x1="199.5" x2="276.5" y1="646.4766" y2="646.4766"/><rect fill="#FEFECE" filter="url(#f1)" height="103.3438" style="stroke: #A80036; stroke-width: 1.5;" width="139" x="359.5" y="428.6406"/><ellipse cx="401.05" cy="444.6406" fill="#ADD1B2" rx="11" ry="11" style="stroke: #A80036; stroke-width: 1.0;"/><path d="M403.7531,450.0781 Q402.8313,451 400.5656,451 Q399.3,451 398.3781,450.0781 Q396.7219,448.4219 396.7219,444.8906 Q396.7219,440.7813 398.5031,438.9844 Q399.4406,438.0625 400.6281,438.0625 Q402.8938,438.0625 403.6281,438.7813 Q405.0188,440.1875 404.9563,442.5781 L402.4875,442.5781 Q402.425,440.4531 401.6906,439.7188 Q401.3,439.3125 400.6281,439.3125 Q400.6281,439.3125 400.5656,439.7813 Q399.2375,441.1094 399.2375,444.7656 Q399.2375,447.9531 400.3781,449.0781 Q400.9094,449.6094 400.9094,449.6094 Q401.1594,449.6094 401.6906,449.0781 Q402.3625,448.4219 402.425,446.0313 L405.0188,446.0313 Q404.8156,449.0156 403.7531,450.0781 Z "/><text fill="#000000" font-family="sans-serif" font-size="12" lengthAdjust="spacingAndGlyphs" textLength="48" x="420.95" y="449.5508">Reporter</text><line style="stroke: #A80036; stroke-width: 1.5;" x1="360.5" x2="497.5" y1="460.6406" y2="460.6406"/><rect fill="none" height="6" style="stroke: #C82930; stroke-width: 1.0;" width="6" x="367.5" y="470.0586"/><text fill="#000000" font-family="sans-serif" font-size="11" lengthAdjust="spacingAndGlyphs" textLength="58" x="379.5" y="476.0596">email: String</text><rect fill="none" height="6" style="stroke: #C82930; stroke-width: 1.0;" width="6" x="367.5" y="483.8945"/><text fill="#000000" font-family="sans-serif" font-size="11" lengthAdjust="spacingAndGlyphs" textLength="101" x="379.5" y="489.8955">reportingEmail: String</text><line style="stroke: #A80036; stroke-width: 1.5;" x1="360.5" x2="497.5" y1="496.3125" y2="496.3125"/><ellipse cx="370.5" cy="508.7305" fill="#84BE84" rx="3" ry="3" style="stroke: #038048; stroke-width: 1.0;"/><text fill="#000000" font-family="sans-serif" font-size="11" lengthAdjust="spacingAndGlyphs" textLength="110" x="379.5" y="511.7314">apply(Throwable): Unit</text><ellipse cx="370.5" cy="522.5664" fill="#84BE84" rx="3" ry="3" style="stroke: #038048; stroke-width: 1.0;"/><text fill="#000000" font-family="sans-serif" font-size="11" lengthAdjust="spacingAndGlyphs" textLength="113" x="379.5" y="525.5674">report(Throwable): Unit</text><rect fill="#FEFECE" filter="url(#f1)" height="75.6719" style="stroke: #A80036; stroke-width: 1.5;" width="195" x="86.5" y="82.6406"/><ellipse cx="166.75" cy="98.6406" fill="#ADD1B2" rx="11" ry="11" style="stroke: #A80036; stroke-width: 1.0;"/><path d="M169.4531,104.0781 Q168.5313,105 166.2656,105 Q165,105 164.0781,104.0781 Q162.4219,102.4219 162.4219,98.8906 Q162.4219,94.7813 164.2031,92.9844 Q165.1406,92.0625 166.3281,92.0625 Q168.5938,92.0625 169.3281,92.7813 Q170.7188,94.1875 170.6563,96.5781 L168.1875,96.5781 Q168.125,94.4531 167.3906,93.7188 Q167,93.3125 166.3281,93.3125 Q166.3281,93.3125 166.2656,93.7813 Q164.9375,95.1094 164.9375,98.7656 Q164.9375,101.9531 166.0781,103.0781 Q166.6094,103.6094 166.6094,103.6094 Q166.8594,103.6094 167.3906,103.0781 Q168.0625,102.4219 168.125,100.0313 L170.7188,100.0313 Q170.5156,103.0156 169.4531,104.0781 Z "/><text fill="#000000" font-family="sans-serif" font-size="12" lengthAdjust="spacingAndGlyphs" textLength="26" x="187.25" y="103.5508">Main</text><line style="stroke: #A80036; stroke-width: 1.5;" x1="87.5" x2="280.5" y1="114.6406" y2="114.6406"/><ellipse cx="97.5" cy="127.0586" fill="none" rx="3" ry="3" style="stroke: #038048; stroke-width: 1.0;"/><text fill="#000000" font-family="sans-serif" font-size="11" lengthAdjust="spacingAndGlyphs" textLength="108" x="106.5" y="130.0596">watchman: Watchman</text><line style="stroke: #A80036; stroke-width: 1.5;" x1="87.5" x2="280.5" y1="136.4766" y2="136.4766"/><ellipse cx="97.5" cy="148.8945" fill="#84BE84" rx="3" ry="3" style="stroke: #038048; stroke-width: 1.0;"/><text fill="#000000" font-family="sans-serif" font-size="11" lengthAdjust="spacingAndGlyphs" textLength="169" x="106.5" y="151.8955">results: Vector[(Address, Source)]</text><polygon fill="#008000" filter="url(#f1)" points="351,107.6406,351,133.9922,435,133.9922,435,117.6406,425,107.6406,351,107.6406" style="stroke: #A80036; stroke-width: 1.0;"/><polygon fill="#008000" points="351,107.6406,351,116.6406,281.561,120.6406,351,124.6406,351,133.9922,435,133.9922,435,117.6406,425,107.6406,351,107.6406" style="stroke: #A80036; stroke-width: 1.0;"/><line style="stroke: #A80036; stroke-width: 1.0;" x1="425" x2="425" y1="107.6406" y2="117.6406"/><line style="stroke: #A80036; stroke-width: 1.0;" x1="435" x2="425" y1="117.6406" y2="117.6406"/><text fill="#000000" font-family="sans-serif" font-size="13" lengthAdjust="spacingAndGlyphs" textLength="63" x="357" y="126.1357">Entry point</text><rect fill="#FEFECE" filter="url(#f1)" height="70.0234" style="stroke: #A80036; stroke-width: 1.5;" width="82" x="388" y="756.1406"/><ellipse cx="405.7" cy="776.2344" fill="#FFFF00" rx="11" ry="11" style="stroke: #A80036; stroke-width: 1.0;"/><path d="M409.6063,776.0938 Q409.6063,780.2813 408.1375,781.7344 Q407.2781,782.5938 404.95,782.5938 Q403.5594,782.5938 402.7,781.7344 Q401.2313,780.2813 401.2313,776.0938 Q401.2313,771.9688 402.7,770.5156 Q403.5594,769.6563 404.95,769.6563 Q407.2781,769.6563 408.1375,770.5156 Q409.6063,771.9688 409.6063,776.0938 Z M403.7625,776.0938 Q403.7625,779.875 404.6219,780.7344 Q405.2156,781.3438 405.2156,781.3438 Q405.6219,781.3438 406.2156,780.7344 Q407.075,779.875 407.075,776.0938 Q407.075,772.375 406.2156,771.5156 Q405.6219,770.9063 404.95,770.9063 Q404.95,770.9063 404.6219,771.5156 Q403.7625,772.375 403.7625,776.0938 Z "/><text fill="#000000" font-family="sans-serif" font-size="12" font-style="italic" lengthAdjust="spacingAndGlyphs" textLength="48" x="418.3" y="773.5977">«object»</text><text fill="#000000" font-family="sans-serif" font-size="12" lengthAdjust="spacingAndGlyphs" textLength="28" x="428.3" y="788.6914">send</text><line style="stroke: #A80036; stroke-width: 1.5;" x1="389" x2="469" y1="796.3281" y2="796.3281"/><line style="stroke: #A80036; stroke-width: 1.5;" x1="389" x2="469" y1="804.3281" y2="804.3281"/><ellipse cx="399" cy="816.7461" fill="#84BE84" rx="3" ry="3" style="stroke: #038048; stroke-width: 1.0;"/><text fill="#000000" font-family="sans-serif" font-size="11" lengthAdjust="spacingAndGlyphs" textLength="56" x="408" y="819.7471">a(Mail): Unit</text><polygon fill="#FBFB77" filter="url(#f1)" points="243.5,778.1406,243.5,804.4922,352.5,804.4922,352.5,788.1406,342.5,778.1406,243.5,778.1406" style="stroke: #A80036; stroke-width: 1.0;"/><line style="stroke: #A80036; stroke-width: 1.0;" x1="342.5" x2="342.5" y1="778.1406" y2="788.1406"/><line style="stroke: #A80036; stroke-width: 1.0;" x1="352.5" x2="342.5" y1="788.1406" y2="788.1406"/><text fill="#000000" font-family="sans-serif" font-size="13" lengthAdjust="spacingAndGlyphs" textLength="88" x="249.5" y="796.6357">package object</text><rect fill="#FEFECE" filter="url(#f1)" height="103.3438" style="stroke: #A80036; stroke-width: 1.5;" width="70" x="540" y="739.6406"/><ellipse cx="562.2" cy="755.6406" fill="#ADD1B2" rx="11" ry="11" style="stroke: #A80036; stroke-width: 1.0;"/><path d="M564.9031,761.0781 Q563.9813,762 561.7156,762 Q560.45,762 559.5281,761.0781 Q557.8719,759.4219 557.8719,755.8906 Q557.8719,751.7813 559.6531,749.9844 Q560.5906,749.0625 561.7781,749.0625 Q564.0438,749.0625 564.7781,749.7813 Q566.1688,751.1875 566.1063,753.5781 L563.6375,753.5781 Q563.575,751.4531 562.8406,750.7188 Q562.45,750.3125 561.7781,750.3125 Q561.7781,750.3125 561.7156,750.7813 Q560.3875,752.1094 560.3875,755.7656 Q560.3875,758.9531 561.5281,760.0781 Q562.0594,760.6094 562.0594,760.6094 Q562.3094,760.6094 562.8406,760.0781 Q563.5125,759.4219 563.575,757.0313 L566.1688,757.0313 Q565.9656,760.0156 564.9031,761.0781 Z "/><text fill="#000000" font-family="sans-serif" font-size="12" lengthAdjust="spacingAndGlyphs" textLength="22" x="577.8" y="760.5508">Mail</text><line style="stroke: #A80036; stroke-width: 1.5;" x1="541" x2="609" y1="771.6406" y2="771.6406"/><ellipse cx="551" cy="784.0586" fill="none" rx="3" ry="3" style="stroke: #038048; stroke-width: 1.0;"/><text fill="#000000" font-family="sans-serif" font-size="11" lengthAdjust="spacingAndGlyphs" textLength="22" x="560" y="787.0596">from</text><ellipse cx="551" cy="797.8945" fill="none" rx="3" ry="3" style="stroke: #038048; stroke-width: 1.0;"/><text fill="#000000" font-family="sans-serif" font-size="11" lengthAdjust="spacingAndGlyphs" textLength="9" x="560" y="800.8955">to</text><ellipse cx="551" cy="811.7305" fill="none" rx="3" ry="3" style="stroke: #038048; stroke-width: 1.0;"/><text fill="#000000" font-family="sans-serif" font-size="11" lengthAdjust="spacingAndGlyphs" textLength="35" x="560" y="814.7314">subject</text><ellipse cx="551" cy="825.5664" fill="none" rx="3" ry="3" style="stroke: #038048; stroke-width: 1.0;"/><text fill="#000000" font-family="sans-serif" font-size="11" lengthAdjust="spacingAndGlyphs" textLength="44" x="560" y="828.5674">message</text><line style="stroke: #A80036; stroke-width: 1.5;" x1="541" x2="609" y1="834.9844" y2="834.9844"/><path d="M283.789,285.1406 C305.067,285.1406 326.345,285.1406 347.622,285.1406 " fill="none" style="stroke: #A80036; stroke-width: 1.0;"/><polygon fill="#A80036" points="352.74,285.1406,343.74,281.1406,347.74,285.1406,343.74,289.1406,352.74,285.1406" style="stroke: #A80036; stroke-width: 1.0;"/><path d="M183.312,330.4186 C182.836,361.0326 182.204,401.6816 181.721,432.7446 " fill="none" style="stroke: #A80036; stroke-width: 1.0;"/><polygon fill="#A80036" points="181.639,438.0356,185.7774,429.0984,181.7161,433.0362,177.7783,428.975,181.639,438.0356" style="stroke: #A80036; stroke-width: 1.0;"/><text fill="#000000" font-family="sans-serif" font-size="13" lengthAdjust="spacingAndGlyphs" textLength="81" x="184" y="395.1357">&lt;&lt;delegate&gt;&gt;</text><text fill="#000000" font-family="sans-serif" font-size="13" lengthAdjust="spacingAndGlyphs" textLength="5" x="177.8836" y="351.1297">*</text><text fill="#000000" font-family="sans-serif" font-size="13" lengthAdjust="spacingAndGlyphs" textLength="7" x="174.1651" y="427.2729">1</text><path d="M164.36,522.4486 C156.06,543.0536 146.126,567.7136 138.191,587.4126 " fill="none" style="stroke: #A80036; stroke-width: 1.0;"/><polygon fill="#A80036" points="136.219,592.3086,143.2929,585.4559,138.0878,587.671,135.8727,582.4659,136.219,592.3086" style="stroke: #A80036; stroke-width: 1.0;"/><text fill="#000000" font-family="sans-serif" font-size="13" lengthAdjust="spacingAndGlyphs" textLength="7" x="154.4019" y="543.3689">1</text><text fill="#000000" font-family="sans-serif" font-size="13" lengthAdjust="spacingAndGlyphs" textLength="20" x="116.6767" y="581.7447">0..*</text><path d="M197.64,522.4486 C205.94,543.0536 215.874,567.7136 223.809,587.4126 " fill="none" style="stroke: #A80036; stroke-width: 1.0;"/><polygon fill="#A80036" points="225.781,592.3086,226.1273,582.4659,223.9122,587.671,218.7071,585.4559,225.781,592.3086" style="stroke: #A80036; stroke-width: 1.0;"/><text fill="#000000" font-family="sans-serif" font-size="13" lengthAdjust="spacingAndGlyphs" textLength="7" x="192.5699" y="543.3689">1</text><text fill="#000000" font-family="sans-serif" font-size="13" lengthAdjust="spacingAndGlyphs" textLength="20" x="201.1983" y="581.7447">0..*</text><path d="M239.901,330.1766 C275.738,358.4076 322.502,395.2456 360.558,425.2246 " fill="none" style="stroke: #A80036; stroke-width: 1.0;"/><polygon fill="#A80036" points="364.682,428.4736,360.0883,419.7617,360.7546,425.3792,355.1372,426.0455,364.682,428.4736" style="stroke: #A80036; stroke-width: 1.0;"/><text fill="#000000" font-family="sans-serif" font-size="13" lengthAdjust="spacingAndGlyphs" textLength="81" x="323" y="395.1357">&lt;&lt;delegate&gt;&gt;</text><text fill="#000000" font-family="sans-serif" font-size="13" lengthAdjust="spacingAndGlyphs" textLength="5" x="242.4105" y="351.1893">*</text><text fill="#000000" font-family="sans-serif" font-size="13" lengthAdjust="spacingAndGlyphs" textLength="20" x="334.6955" y="417.9515">0..*</text><path d="M429,531.8196 C429,593.0236 429,694.6856 429,750.4766 " fill="none" style="stroke: #A80036; stroke-width: 1.0;"/><polygon fill="#A80036" points="429,755.7296,433,746.7296,429,750.7296,425,746.7296,429,755.7296" style="stroke: #A80036; stroke-width: 1.0;"/><polygon fill="#FF0000" filter="url(#f1)" points="434,608.6406,434,634.6406,617,634.6406,617,618.6406,607,608.6406,434,608.6406" style="stroke: #A80036; stroke-width: 1.0;"/><line style="stroke: #A80036; stroke-width: 1.0;" x1="607" x2="607" y1="608.6406" y2="618.6406"/><line style="stroke: #A80036; stroke-width: 1.0;" x1="617" x2="607" y1="618.6406" y2="618.6406"/><text fill="#000000" font-family="sans-serif" font-size="13" lengthAdjust="spacingAndGlyphs" textLength="162" x="440" y="627.1357">send a new Mail about Error</text><text fill="#000000" font-family="sans-serif" font-size="13" lengthAdjust="spacingAndGlyphs" textLength="5" x="423.6641" y="553.3346">*</text><text fill="#000000" font-family="sans-serif" font-size="13" lengthAdjust="spacingAndGlyphs" textLength="7" x="421.3547" y="745.2511">1</text><path d="M184,158.9216 C184,181.4916 184,210.5386 184,234.9736 " fill="none" style="stroke: #A80036; stroke-width: 1.0;"/><polygon fill="#A80036" points="184,240.1136,188,231.1136,184,235.1136,180,231.1136,184,240.1136" style="stroke: #A80036; stroke-width: 1.0;"/><text fill="#000000" font-family="sans-serif" font-size="13" lengthAdjust="spacingAndGlyphs" textLength="7" x="176.4422" y="179.8469">1</text><text fill="#000000" font-family="sans-serif" font-size="13" lengthAdjust="spacingAndGlyphs" textLength="5" x="178.6016" y="229.2248">*</text><path d="M470.063,791.1406 C491.567,791.1406 513.071,791.1406 534.576,791.1406 " fill="none" style="stroke: #A80036; stroke-width: 1.0;"/><polygon fill="#A80036" points="539.748,791.1406,530.748,787.1406,534.748,791.1406,530.748,795.1406,539.748,791.1406" style="stroke: #A80036; stroke-width: 1.0;"/><text fill="#000000" font-family="sans-serif" font-size="13" lengthAdjust="spacingAndGlyphs" textLength="7" x="478.0008" y="787.24">1</text><text fill="#000000" font-family="sans-serif" font-size="13" lengthAdjust="spacingAndGlyphs" textLength="20" x="511.9703" y="787.2614">0..*</text></g></svg>